Coordinates
version=1
nRows=25
nColumns=28
inDegrees=yes

Units are S.I. units (second, meters, Newtons, ...)
Angles are in degrees.

endheader
time	pelvis_tilt	pelvis_list	pelvis_rotation	pelvis_tx	pelvis_ty	pelvis_tz	hip_flexion_r	hip_adduction_r	hip_rotation_r	knee_angle_r	ankle_angle_r	subtalar_angle_r	mtp_angle_r	hip_flexion_l	hip_adduction_l	hip_rotation_l	knee_angle_l	socket_flexion	socket_adduction	socket_rotation	socket_tx	socket_ty	socket_tz	foot_flex	lumbar_extension	lumbar_bending	lumbar_rotation
      0.63333333	     -2.18668201	     -1.49353227	      9.45933686	     -0.03965007	      0.98833000	      0.29139124	     26.93410245	      0.46062079	     -7.64135185	     -6.79682664	     16.93961663	    -18.45285376	    -15.27722145	    -24.04130968	     -4.94119064	     18.36839870	      8.82973864	     10.55631597	      0.00000000	      0.00000000	      0.00000000	      0.00416382	      0.00000000	      8.07847989	     -8.52782994	      1.42186146	     -7.45715244
      0.63750000	     -2.13263011	     -1.58806072	      9.55851624	     -0.03310008	      0.98747208	      0.29136186	     27.06855687	      0.58873652	     -7.34003002	     -7.58763358	     16.69829842	    -18.42229378	    -15.28512513	    -24.32600593	     -5.10818124	     18.47631889	      8.63599962	     10.62657852	      0.00000000	      0.00000000	      0.00000000	      0.00419823	      0.00000000	      8.02629615	     -8.50189382	      1.65244119	     -7.48384156
      0.64166667	     -2.14704590	     -1.66633547	      9.36909750	     -0.02647280	      0.98632390	      0.29175937	     27.59141322	      0.76683843	     -7.22051100	     -8.97835214	     16.34312207	    -18.47784614	    -15.07768679	    -24.60214906	     -5.11177931	     18.15534277	      8.45022035	     10.69777039	      0.00000000	      0.00000000	      0.00000000	      0.00415389	      0.00000000	      7.89351422	     -8.40821098	      1.86272691	     -7.63917119
      0.64583333	     -1.98538249	     -1.88992898	      9.12019510	     -0.01962166	      0.98542773	      0.29222076	     27.73218219	      1.17868749	     -6.91465080	     -9.94873865	     15.86611301	    -18.35288043	    -14.08635351	    -25.09617038	     -5.26453855	     17.70289793	      8.30443735	     10.77098337	      0.00000000	      0.00000000	      0.00000000	      0.00410079	      0.00000000	      7.82713681	     -8.48732393	      2.20058182	     -7.16646649
      0.65000000	     -2.02604078	     -1.93911883	      9.07486230	     -0.01303431	      0.98441202	      0.29248430	     28.15650023	      1.28087898	     -6.76184421	    -11.15049946	     15.41877135	    -18.39600260	    -13.70949410	    -25.23667871	     -5.28569655	     17.63253945	      7.95245320	     10.81363740	      0.00000000	      0.00000000	      0.00000000	      0.00399393	      0.00000000	      7.69308555	     -8.37093256	      2.35341153	     -7.38292805
      0.65416667	     -1.75343991	     -2.14155179	      8.95382173	     -0.00617357	      0.98375841	      0.29270273	     28.14473287	      1.59472749	     -6.73322984	    -12.05242460	     13.50620386	    -18.64020622	     -7.21785032	    -25.76906570	     -5.45998310	     17.31375988	      7.67821573	     10.85436831	      0.00000000	      0.00000000	      0.00000000	      0.00387708	      0.00000000	      7.54251869	     -8.57049995	      2.72448660	     -7.12477338
      0.65833333	     -1.82366890	     -2.13846843	      8.91672209	      0.00037948	      0.98283177	      0.29295799	     28.59606793	      1.62036673	     -6.61570319	    -13.28868427	     13.15060153	    -18.54688188	     -7.13385983	    -25.79981584	     -5.40709657	     17.30468698	      7.17265765	     10.86486852	      0.00000000	      0.00000000	      0.00000000	      0.00370887	      0.00000000	      7.33444054	     -8.43054221	      2.82463227	     -7.28460505
      0.66250000	     -1.84939480	     -2.17238273	      8.95087895	      0.00687328	      0.98208891	      0.29314059	     28.88697745	      1.68214413	     -6.39787469	    -14.30580856	     12.74272498	    -18.38804842	     -7.04233797	    -25.80280055	     -5.42019737	     17.39588611	      6.55796267	     10.86210937	      0.00000000	      0.00000000	      0.00000000	      0.00349076	      0.00000000	      7.21757678	     -8.34619568	      2.93877919	     -7.34440797
      0.66666667	     -1.59259279	     -2.63872274	      8.48966630	      0.01413060	      0.98129326	      0.29378457	     28.96368782	      2.41779046	     -6.21072675	    -15.37659680	     12.37262356	    -18.24244602	     -6.48070754	    -26.38383186	     -5.68442551	     16.50196546	      6.28939291	     10.90325447	      0.00000000	      0.00000000	      0.00000000	      0.00308172	      0.00000000	      6.93750182	     -8.44431709	      3.59900636	     -6.80911666
      0.67083333	     -1.39331694	     -2.76067322	      8.41337629	      0.02083993	      0.98087015	      0.29396273	     29.02820974	      2.59983343	     -6.22575474	    -16.38413448	     11.01338861	    -18.50717389	     -2.59608256	    -26.64754123	     -5.73378440	     16.26869885	      5.68276578	     10.91738801	      0.00000000	      0.00000000	      0.00000000	      0.00286408	      0.00000000	      6.69286059	     -8.59836152	      3.86314108	     -6.72054382
      0.67500000	     -1.28257146	     -2.92845994	      8.39923158	      0.02744810	      0.98042506	      0.29414675	     29.11121657	      2.83504686	     -6.03627482	    -17.28679205	     10.72812581	    -18.45492710	     -2.61550708	    -26.75342096	     -5.85840612	     16.22369640	      4.99960854	     10.91287645	      0.00000000	      0.00000000	      0.00000000	      0.00247076	      0.00000000	      6.38919577	     -8.65333951	      4.17477492	     -6.72230907
      0.67916667	     -1.14784213	     -3.11957451	      8.18597693	      0.03438963	      0.97993132	      0.29452379	     29.28894222	      3.13226510	     -6.06601623	    -18.43678959	     10.31419812	    -18.38307903	     -2.58490071	    -26.92699062	     -5.88507210	     15.73853994	      4.28161722	     10.90855950	      0.00000000	      0.00000000	      0.00000000	      0.00216038	      0.00000000	      6.12469668	     -8.67869664	      4.51182744	     -6.67637384
      0.68333333	     -1.04638451	     -3.30541819	      7.94483334	      0.04127948	      0.97944005	      0.29495462	     29.44343240	      3.43285329	     -5.97048550	    -19.48634721	     10.02126986	    -18.03480503	     -1.83157042	    -27.05210070	     -5.90055498	     15.33314292	      3.56754943	     10.91895240	      0.00000000	      0.00000000	      0.00000000	      0.00182810	      0.00000000	      5.78812888	     -8.69719443	      4.78982446	     -6.24584893
      0.68750000	     -0.90983880	     -3.49124381	      7.81857569	      0.04811218	      0.97917067	      0.29522837	     29.50459101	      3.69589362	     -5.96600334	    -20.44245349	      9.68836430	    -17.98562938	     -1.77927540	    -27.12261403	     -5.95693898	     15.04627047	      2.70716268	     10.89427025	      0.00000000	      0.00000000	      0.00000000	      0.00143779	      0.00000000	      5.44575704	     -8.74354952	      5.12372471	     -6.27330713
      0.69166667	     -0.78491831	     -3.67610858	      7.74933320	      0.05485819	      0.97897865	      0.29544689	     29.51109068	      3.95340038	     -5.86126775	    -21.28617306	      9.45523202	    -17.91263637	     -1.74852785	    -27.13563233	     -6.04164523	     14.89455203	      1.82777586	     10.89274249	      0.00000000	      0.00000000	      0.00000000	      0.00102207	      0.00000000	      5.03849993	     -8.79461918	      5.45100712	     -6.24793364
      0.69583333	     -0.63569192	     -3.91086174	      7.46643359	      0.06192143	      0.97875751	      0.29586477	     29.56488795	      4.29055318	     -5.96482829	    -22.27212702	      9.15234784	    -17.67376442	     -1.53488682	    -27.20679350	     -6.05775874	     14.31834105	      0.87900407	     10.85428441	      0.00000000	      0.00000000	      0.00000000	      0.00069621	      0.00000000	      4.73842074	     -8.81907802	      5.81495424	     -6.08338479
      0.70000000	     -0.48240054	     -4.12100165	      7.27192680	      0.06888355	      0.97864492	      0.29615752	     29.52929560	      4.58661530	     -5.98674120	    -23.12426161	      8.98878971	    -17.32828492	     -1.12287072	    -27.23467504	     -6.08821624	     13.90249978	     -0.07898571	     10.85590464	      0.00000000	      0.00000000	      0.00000000	      0.00033073	      0.00000000	      4.32955517	     -8.88638487	      6.14874228	     -5.81767437
      0.70416667	     -0.34245467	     -4.29039323	      7.19832284	      0.07568040	      0.97869139	      0.29634793	     29.44213800	      4.81792057	     -5.94936887	    -23.87355707	      8.83913589	    -17.26397098	     -1.06770450	    -27.15811876	     -6.13714230	     13.69493337	     -1.13806005	     10.82957188	      0.00000000	      0.00000000	      0.00000000	     -0.00008245	      0.00000000	      3.83675612	     -8.94763331	      6.45503490	     -5.78324994
      0.70833333	     -0.18780406	     -4.47354259	      7.02442208	      0.08263408	      0.97876389	      0.29664734	     29.34260867	      5.07244191	     -6.04064257	    -24.63703669	      8.67890197	    -17.15148403	     -0.98685722	    -27.07655270	     -6.14174518	     13.27867118	     -2.30080512	     10.78084325	      0.00000000	      0.00000000	      0.00000000	     -0.00040449	      0.00000000	      3.43037158	     -9.01319701	      6.76172176	     -5.72636517
      0.71250000	      0.01565967	     -4.67300473	      6.75791448	      0.08975084	      0.97891537	      0.29693912	     29.17150721	      5.34518396	     -6.21388499	    -25.38383728	      8.66497343	    -16.43687403	     -0.32396664	    -27.06640778	     -6.11231926	     12.65557139	     -3.45327862	     10.73828609	      0.00000000	      0.00000000	      0.00000000	     -0.00060364	      0.00000000	      3.08641694	     -9.11087919	      7.05954780	     -5.30832286
      0.71666667	      0.17996807	     -4.83947904	      6.60094423	      0.09665083	      0.97910213	      0.29723242	     29.01256852	      5.57708938	     -6.30929703	    -26.08442646	      8.56386248	    -16.31112098	     -0.17104668	    -26.92913022	     -6.11410132	     12.26867896	     -4.70329095	     10.67932399	      0.00000000	      0.00000000	      0.00000000	     -0.00092229	      0.00000000	      2.70693283	     -9.18968818	      7.34927194	     -5.27383650
      0.72083333	      0.35048532	     -5.00238145	      6.43266236	      0.10364453	      0.97936207	      0.29752362	     28.79080787	      5.81450662	     -6.38673035	    -26.70539965	      8.50873501	    -16.09928826	      0.00231214	    -26.77300681	     -6.10436234	     11.81071871	     -6.00485841	     10.59479876	      0.00000000	      0.00000000	      0.00000000	     -0.00118539	      0.00000000	      2.32272902	     -9.24892223	      7.63046348	     -5.18412256
      0.72500000	      0.52512485	     -5.16823030	      6.24106369	      0.11048310	      0.97971220	      0.29782572	     28.53667289	      6.05995429	     -6.46378163	    -27.25355174	      8.52961308	    -15.70632774	      0.31044117	    -26.55832664	     -6.08406803	     11.32846953	     -7.41519953	     10.48903594	      0.00000000	      0.00000000	      0.00000000	     -0.00143901	      0.00000000	      2.02915443	     -9.37155160	      7.88586988	     -4.99506787
      0.72916667	      0.72092661	     -5.28578982	      6.05688458	      0.11740232	      0.98016386	      0.29810085	     28.22459970	      6.24408924	     -6.56661204	    -27.77586166	      8.62145711	    -15.18819839	      0.77856111	    -26.33590485	     -6.02402887	     10.86605411	     -8.89017327	     10.33274190	      0.00000000	      0.00000000	      0.00000000	     -0.00154137	      0.00000000	      1.74221756	     -9.45942745	      8.07998580	     -4.74886278
      0.73333333	      0.88106382	     -5.42467591	      5.84923410	      0.12432366	      0.98049034	      0.29843354	     27.97302593	      6.45439021	     -6.71347311	    -28.35345075	      8.64882448	    -14.99667752	      0.98526588	    -26.13539922	     -5.99407190	     10.32907376	    -10.17228575	     10.27994546	      0.00000000	      0.00000000	      0.00000000	     -0.00189444	      0.00000000	      1.31596538	     -9.55137261	      8.31675211	     -4.67497264
